<?xml version="1.0" encoding="UTF-8" standalone="no"?>
<svg
   xmlns:dc="http://purl.org/dc/elements/1.1/"
   xmlns:cc="http://creativecommons.org/ns#"
   xmlns:rdf="http://www.w3.org/1999/02/22-rdf-syntax-ns#"
   xmlns:svg="http://www.w3.org/2000/svg"
   xmlns="http://www.w3.org/2000/svg"
   xmlns:sodipodi="http://sodipodi.sourceforge.net/DTD/sodipodi-0.dtd"
   xmlns:inkscape="http://www.inkscape.org/namespaces/inkscape"
   width="700pt"
   height="700pt"
   version="1.1"
   viewBox="0 0 700 700"
   id="svg349"
   sodipodi:docname="noun-nature-2404733.svg"
   inkscape:export-filename="C:\Users\abdou\AppData\Roaming\QGIS\QGIS3\profiles\default\python\plugins\Densite\images\icon_grand.png"
   inkscape:export-xdpi="7.4099998"
   inkscape:export-ydpi="7.4099998"
   inkscape:version="0.92.3 (2405546, 2018-03-11)">
  <metadata
     id="metadata353">
    <rdf:RDF>
      <cc:Work
         rdf:about="">
        <dc:format>image/svg+xml</dc:format>
        <dc:type
           rdf:resource="http://purl.org/dc/dcmitype/StillImage" />
      </cc:Work>
    </rdf:RDF>
  </metadata>
  <sodipodi:namedview
     pagecolor="#ffffff"
     bordercolor="#666666"
     borderopacity="1"
     objecttolerance="10"
     gridtolerance="10"
     guidetolerance="10"
     inkscape:pageopacity="0"
     inkscape:pageshadow="2"
     inkscape:window-width="1920"
     inkscape:window-height="1009"
     id="namedview351"
     showgrid="false"
     inkscape:zoom="0.50571428"
     inkscape:cx="493.53376"
     inkscape:cy="455.43311"
     inkscape:window-x="-8"
     inkscape:window-y="-8"
     inkscape:window-maximized="1"
     inkscape:current-layer="g347" />
  <defs
     id="defs83">
    <symbol
       id="aa"
       overflow="visible">
      <path
         d="m14.656-0.875c-0.76172 0.39844-1.5547 0.69531-2.375 0.89062-0.8125 0.19531-1.6641 0.29688-2.5469 0.29688-2.6562 0-4.7617-0.73828-6.3125-2.2188-1.5547-1.4883-2.3281-3.5039-2.3281-6.0469 0-2.5508 0.77344-4.5664 2.3281-6.0469 1.5508-1.4883 3.6562-2.2344 6.3125-2.2344 0.88281 0 1.7344 0.10156 2.5469 0.29688 0.82031 0.19922 1.6133 0.49609 2.375 0.89062v3.2969c-0.76172-0.51953-1.5117-0.89844-2.25-1.1406-0.74219-0.23828-1.5234-0.35938-2.3438-0.35938-1.4688 0-2.625 0.46875-3.4688 1.4062-0.83594 0.9375-1.25 2.2344-1.25 3.8906 0 1.6484 0.41406 2.9375 1.25 3.875 0.84375 0.9375 2 1.4062 3.4688 1.4062 0.82031 0 1.6016-0.11719 2.3438-0.35938 0.73828-0.23828 1.4883-0.61719 2.25-1.1406z"
         id="path2" />
    </symbol>
    <symbol
       id="d"
       overflow="visible">
      <path
         d="m10.719-8.7031c-0.33594-0.15625-0.66797-0.26953-1-0.34375-0.32422-0.082031-0.65625-0.125-1-0.125-0.98047 0-1.7344 0.32031-2.2656 0.95312-0.53125 0.625-0.79688 1.5273-0.79688 2.7031v5.5156h-3.8125v-11.969h3.8125v1.9688c0.48828-0.78125 1.0508-1.3477 1.6875-1.7031 0.64453-0.36328 1.4102-0.54688 2.2969-0.54688 0.13281 0 0.27344 0.007812 0.42188 0.015625 0.14453 0.011719 0.36328 0.03125 0.65625 0.0625z"
         id="path5" />
    </symbol>
    <symbol
       id="a"
       overflow="visible">
      <path
         d="m13.781-6.0156v1.0938h-8.9375c0.09375 0.89844 0.41406 1.5703 0.96875 2.0156 0.55078 0.44922 1.3281 0.67188 2.3281 0.67188 0.80078 0 1.625-0.11719 2.4688-0.35938 0.84375-0.23828 1.7109-0.59766 2.6094-1.0781v2.9531c-0.90625 0.33594-1.8125 0.58984-2.7188 0.76562s-1.8125 0.26562-2.7188 0.26562c-2.1562 0-3.8398-0.54688-5.0469-1.6406-1.1992-1.1016-1.7969-2.6484-1.7969-4.6406 0-1.9453 0.58594-3.4766 1.7656-4.5938 1.1758-1.125 2.8008-1.6875 4.875-1.6875 1.875 0 3.375 0.57031 4.5 1.7031 1.1328 1.125 1.7031 2.6367 1.7031 4.5312zm-3.9375-1.2656c0-0.72656-0.21484-1.3125-0.64062-1.75-0.41797-0.44531-0.96875-0.67188-1.6562-0.67188-0.74219 0-1.3438 0.21094-1.8125 0.625-0.46094 0.41797-0.74609 1.0156-0.85938 1.7969z"
         id="path8" />
    </symbol>
    <symbol
       id="l"
       overflow="visible">
      <path
         d="m7.2031-5.3906c-0.80469 0-1.4062 0.13672-1.8125 0.40625-0.39844 0.27344-0.59375 0.67188-0.59375 1.2031 0 0.48047 0.16016 0.85938 0.48438 1.1406 0.32031 0.27344 0.77344 0.40625 1.3594 0.40625 0.71875 0 1.3203-0.25391 1.8125-0.76562 0.48828-0.51953 0.73438-1.1719 0.73438-1.9531v-0.4375zm5.8438-1.4375v6.8281h-3.8594v-1.7656c-0.51172 0.71875-1.0898 1.2461-1.7344 1.5781-0.63672 0.33203-1.418 0.5-2.3438 0.5-1.2422 0-2.2461-0.35938-3.0156-1.0781-0.77344-0.72656-1.1562-1.6719-1.1562-2.8281 0-1.3945 0.47656-2.4219 1.4375-3.0781 0.96875-0.65625 2.4883-0.98438 4.5625-0.98438h2.25v-0.29688c0-0.60156-0.24219-1.0469-0.71875-1.3281-0.48047-0.28125-1.2266-0.42188-2.2344-0.42188-0.8125 0-1.5742 0.085937-2.2812 0.25-0.71094 0.15625-1.3672 0.40234-1.9688 0.73438v-2.9219c0.82031-0.19531 1.6445-0.34766 2.4688-0.45312 0.82031-0.10156 1.6484-0.15625 2.4844-0.15625 2.1562 0 3.7109 0.42969 4.6719 1.2812 0.95703 0.84375 1.4375 2.2266 1.4375 4.1406z"
         id="path11" />
    </symbol>
    <symbol
       id="b"
       overflow="visible">
      <path
         d="m6.0156-15.359v3.3906h3.9375v2.7344h-3.9375v5.0781c0 0.55469 0.10938 0.92969 0.32812 1.125 0.21875 0.19922 0.65625 0.29688 1.3125 0.29688h1.9688v2.7344h-3.2812c-1.5117 0-2.5859-0.3125-3.2188-0.9375-0.625-0.63281-0.9375-1.707-0.9375-3.2188v-5.0781h-1.9062v-2.7344h1.9062v-3.3906z"
         id="path14" />
    </symbol>
    <symbol
       id="k"
       overflow="visible">
      <path
         d="m9.9688-10.219v-6.4062h3.8594v16.625h-3.8594v-1.7344c-0.52344 0.71094-1.1016 1.2305-1.7344 1.5625-0.63672 0.32031-1.3711 0.48438-2.2031 0.48438-1.4688 0-2.6797-0.58203-3.625-1.75-0.94922-1.1758-1.4219-2.6875-1.4219-4.5312s0.47266-3.3477 1.4219-4.5156c0.94531-1.1758 2.1562-1.7656 3.625-1.7656 0.83203 0 1.5664 0.16797 2.2031 0.5 0.63281 0.32422 1.2109 0.83594 1.7344 1.5312zm-2.5156 7.75c0.82031 0 1.4453-0.29688 1.875-0.89062 0.42578-0.60156 0.64062-1.4727 0.64062-2.6094 0-1.1445-0.21484-2.0156-0.64062-2.6094-0.42969-0.59375-1.0547-0.89062-1.875-0.89062-0.8125 0-1.4336 0.29688-1.8594 0.89062-0.42969 0.59375-0.64062 1.4648-0.64062 2.6094 0 1.1367 0.21094 2.0078 0.64062 2.6094 0.42578 0.59375 1.0469 0.89062 1.8594 0.89062z"
         id="path17" />
    </symbol>
    <symbol
       id="j"
       overflow="visible">
      <path
         d="m8.2031-2.4688c0.82031 0 1.4453-0.29688 1.875-0.89062 0.42578-0.60156 0.64062-1.4727 0.64062-2.6094 0-1.1445-0.21484-2.0156-0.64062-2.6094-0.42969-0.59375-1.0547-0.89062-1.875-0.89062-0.82422 0-1.4531 0.30469-1.8906 0.90625-0.4375 0.59375-0.65625 1.4609-0.65625 2.5938 0 1.1367 0.21875 2.0078 0.65625 2.6094 0.4375 0.59375 1.0664 0.89062 1.8906 0.89062zm-2.5469-7.75c0.53125-0.69531 1.1133-1.207 1.75-1.5312 0.64453-0.33203 1.3828-0.5 2.2188-0.5 1.4688 0 2.6758 0.58984 3.625 1.7656 0.94531 1.168 1.4219 2.6719 1.4219 4.5156s-0.47656 3.3555-1.4219 4.5312c-0.94922 1.168-2.1562 1.75-3.625 1.75-0.83594 0-1.5742-0.16797-2.2188-0.5-0.63672-0.33203-1.2188-0.84766-1.75-1.5469v1.7344h-3.8125v-16.625h3.8125z"
         id="path20" />
    </symbol>
    <symbol
       id="i"
       overflow="visible">
      <path
         d="m0.26562-11.969h3.8281l3.2188 8.125 2.7344-8.125h3.8125l-5.0312 13.094c-0.5 1.332-1.0898 2.2656-1.7656 2.7969-0.66797 0.53125-1.5547 0.79688-2.6562 0.79688h-2.2188v-2.5h1.2031c0.64453 0 1.1133-0.10547 1.4062-0.3125 0.30078-0.21094 0.53125-0.57812 0.6875-1.1094l0.10938-0.34375z"
         id="path23" />
    </symbol>
    <symbol
       id="f"
       overflow="visible">
      <path
         d="m2.0156-15.953h4.5781l5.8125 10.938v-10.938h3.8906v15.953h-4.5938l-5.7969-10.938v10.938h-3.8906z"
         id="path26" />
    </symbol>
    <symbol
       id="z"
       overflow="visible">
      <path
         d="m9.2969-13.25c-1.2617 0-2.2344 0.46484-2.9219 1.3906-0.6875 0.91797-1.0312 2.2188-1.0312 3.9062 0 1.668 0.34375 2.9648 1.0312 3.8906 0.6875 0.92969 1.6602 1.3906 2.9219 1.3906 1.2578 0 2.2344-0.46094 2.9219-1.3906 0.6875-0.92578 1.0312-2.2227 1.0312-3.8906 0-1.6875-0.34375-2.9883-1.0312-3.9062-0.6875-0.92578-1.6641-1.3906-2.9219-1.3906zm0-2.9844c2.5625 0 4.5664 0.73438 6.0156 2.2031 1.457 1.4688 2.1875 3.4961 2.1875 6.0781 0 2.5742-0.73047 4.5938-2.1875 6.0625-1.4492 1.4688-3.4531 2.2031-6.0156 2.2031s-4.5742-0.73438-6.0312-2.2031c-1.4492-1.4688-2.1719-3.4883-2.1719-6.0625 0-2.582 0.72266-4.6094 2.1719-6.0781 1.457-1.4688 3.4688-2.2031 6.0312-2.2031z"
         id="path29" />
    </symbol>
    <symbol
       id="y"
       overflow="visible">
      <path
         d="m0.10938-15.953h4.125l4.2344 11.781 4.2188-11.781h4.1406l-5.9062 15.953h-4.9062z"
         id="path32" />
    </symbol>
    <symbol
       id="h"
       overflow="visible">
      <path
         d="m2.0156-15.953h4.1094v15.953h-4.1094z"
         id="path35" />
    </symbol>
    <symbol
       id="x"
       overflow="visible">
      <path
         d="m2.0156-15.953h4.1094v12.844h7.2188v3.1094h-11.328z"
         id="path38" />
    </symbol>
    <symbol
       id="e"
       overflow="visible">
      <path
         d="m11.688-2.9062h-6.4375l-1.0156 2.9062h-4.125l5.9062-15.953h4.9062l5.9062 15.953h-4.1406zm-5.4062-2.9531h4.375l-2.1875-6.3438z"
         id="path41" />
    </symbol>
    <symbol
       id="w"
       overflow="visible">
      <path
         d="m2.0156-15.953h5.2188l3.6406 8.5469 3.6562-8.5469h5.2188v15.953h-3.8906v-11.656l-3.6719 8.5938h-2.6094l-3.6719-8.5938v11.656h-3.8906z"
         id="path44" />
    </symbol>
    <symbol
       id="g"
       overflow="visible">
      <path
         d="m13.109-15.438v3.375c-0.875-0.39453-1.7305-0.69141-2.5625-0.89062-0.83594-0.19531-1.6211-0.29688-2.3594-0.29688-0.99219 0-1.7188 0.13672-2.1875 0.40625-0.46875 0.27344-0.70312 0.6875-0.70312 1.25 0 0.42969 0.15625 0.76172 0.46875 1 0.32031 0.24219 0.89844 0.44922 1.7344 0.625l1.75 0.34375c1.7695 0.35547 3.0312 0.89844 3.7812 1.625 0.75 0.73047 1.125 1.7617 1.125 3.0938 0 1.7617-0.52734 3.0742-1.5781 3.9375-1.043 0.85547-2.6328 1.2812-4.7656 1.2812-1.0117 0-2.0273-0.10156-3.0469-0.29688-1.0234-0.1875-2.043-0.46875-3.0625-0.84375v-3.4688c1.0195 0.53125 2.0039 0.9375 2.9531 1.2188 0.95703 0.27344 1.875 0.40625 2.75 0.40625 0.90625 0 1.5938-0.14453 2.0625-0.4375 0.47656-0.30078 0.71875-0.73438 0.71875-1.2969 0-0.48828-0.16406-0.86719-0.48438-1.1406-0.32422-0.26953-0.96875-0.51562-1.9375-0.73438l-1.5938-0.35938c-1.5938-0.33203-2.7617-0.875-3.5-1.625-0.74219-0.75-1.1094-1.7578-1.1094-3.0312 0-1.582 0.50781-2.8008 1.5312-3.6562 1.0312-0.85156 2.5078-1.2812 4.4375-1.2812 0.875 0 1.7734 0.070313 2.7031 0.20312 0.92578 0.125 1.8828 0.32422 2.875 0.59375z"
         id="path47" />
    </symbol>
    <symbol
       id="v"
       overflow="visible">
      <path
         d="m0.10938-15.953h14.688v3.1094h-5.2812v12.844h-4.1094v-12.844h-5.2969z"
         id="path50" />
    </symbol>
    <symbol
       id="u"
       overflow="visible">
      <path
         d="m7.8438-8.875c0.86328 0 1.4844-0.16016 1.8594-0.48438 0.375-0.32031 0.5625-0.84766 0.5625-1.5781 0-0.72656-0.1875-1.25-0.5625-1.5625s-0.99609-0.46875-1.8594-0.46875h-1.7188v4.0938zm-1.7188 2.8438v6.0312h-4.1094v-15.953h6.2656c2.1016 0 3.6445 0.35547 4.625 1.0625 0.97656 0.71094 1.4688 1.8242 1.4688 3.3438 0 1.0547-0.25781 1.918-0.76562 2.5938-0.51172 0.67969-1.2773 1.1797-2.2969 1.5 0.5625 0.125 1.0625 0.41797 1.5 0.875 0.44531 0.44922 0.89844 1.1328 1.3594 2.0469l2.2344 4.5312h-4.375l-1.9531-3.9688c-0.38672-0.78906-0.78125-1.332-1.1875-1.625-0.40625-0.28906-0.94531-0.4375-1.6094-0.4375z"
         id="path53" />
    </symbol>
    <symbol
       id="t"
       overflow="visible">
      <path
         d="m9.7031-16.625v2.5156h-2.1094c-0.54297 0-0.92188 0.10156-1.1406 0.29688-0.21094 0.19922-0.3125 0.53906-0.3125 1.0156v0.82812h3.2656v2.7344h-3.2656v9.2344h-3.8281v-9.2344h-1.8906v-2.7344h1.8906v-0.82812c0-1.3008 0.36328-2.2656 1.0938-2.8906 0.72656-0.625 1.8516-0.9375 3.375-0.9375z"
         id="path56" />
    </symbol>
    <symbol
       id="c"
       overflow="visible">
      <path
         d="m7.5312-9.5156c-0.84375 0-1.4922 0.30859-1.9375 0.92188-0.44922 0.60547-0.67188 1.4805-0.67188 2.625 0 1.1484 0.22266 2.0273 0.67188 2.6406 0.44531 0.60547 1.0938 0.90625 1.9375 0.90625 0.83203 0 1.4688-0.30078 1.9062-0.90625 0.44531-0.61328 0.67188-1.4922 0.67188-2.6406 0-1.1445-0.22656-2.0195-0.67188-2.625-0.4375-0.61328-1.0742-0.92188-1.9062-0.92188zm0-2.7344c2.0508 0 3.6562 0.55859 4.8125 1.6719 1.1641 1.1055 1.75 2.6406 1.75 4.6094s-0.58594 3.5117-1.75 4.625c-1.1562 1.1055-2.7617 1.6562-4.8125 1.6562-2.0625 0-3.6797-0.55078-4.8438-1.6562-1.168-1.1133-1.75-2.6562-1.75-4.625s0.58203-3.5039 1.75-4.6094c1.1641-1.1133 2.7812-1.6719 4.8438-1.6719z"
         id="path59" />
    </symbol>
    <symbol
       id="s"
       overflow="visible">
      <path
         d="m12.922-9.9688c0.48828-0.75 1.0625-1.3164 1.7188-1.7031 0.66406-0.38281 1.3984-0.57812 2.2031-0.57812 1.375 0 2.4219 0.42969 3.1406 1.2812 0.71875 0.84375 1.0781 2.0742 1.0781 3.6875v7.2812h-3.8438v-6.2344c0.007812-0.09375 0.015625-0.1875 0.015625-0.28125v-0.4375c0-0.84375-0.125-1.457-0.375-1.8438-0.25-0.38281-0.65234-0.57812-1.2031-0.57812-0.73047 0-1.293 0.30469-1.6875 0.90625-0.38672 0.59375-0.58984 1.4609-0.60938 2.5938v5.875h-3.8438v-6.2344c0-1.3203-0.11719-2.1758-0.34375-2.5625-0.23047-0.38281-0.63672-0.57812-1.2188-0.57812-0.73047 0-1.2969 0.30469-1.7031 0.90625-0.39844 0.60547-0.59375 1.4648-0.59375 2.5781v5.8906h-3.8438v-11.969h3.8438v1.75c0.46875-0.66406 1.0039-1.1719 1.6094-1.5156 0.61328-0.34375 1.2891-0.51562 2.0312-0.51562 0.82031 0 1.5508 0.19922 2.1875 0.59375 0.63281 0.39844 1.1133 0.96094 1.4375 1.6875z"
         id="path62" />
    </symbol>
    <symbol
       id="r"
       overflow="visible">
      <path
         d="m13.859-7.2812v7.2812h-3.8438v-5.5469c0-1.0508-0.027344-1.7695-0.078125-2.1562-0.042969-0.39453-0.12109-0.6875-0.23438-0.875-0.14844-0.25-0.35156-0.44141-0.60938-0.57812-0.25-0.14453-0.54297-0.21875-0.875-0.21875-0.79297 0-1.418 0.3125-1.875 0.9375-0.46094 0.61719-0.6875 1.4648-0.6875 2.5469v5.8906h-3.8125v-16.625h3.8125v6.4062c0.58203-0.69531 1.1953-1.207 1.8438-1.5312 0.64453-0.33203 1.3594-0.5 2.1406-0.5 1.3828 0 2.4297 0.42969 3.1406 1.2812 0.71875 0.84375 1.0781 2.0742 1.0781 3.6875z"
         id="path65" />
    </symbol>
    <symbol
       id="q"
       overflow="visible">
      <path
         d="m1.7031-4.6562v-7.3125h3.8438v1.2031c0 0.64844-0.007813 1.4609-0.015625 2.4375v1.9688c0 0.96094 0.023438 1.6523 0.078125 2.0781 0.050781 0.41797 0.13281 0.72656 0.25 0.92188 0.15625 0.25 0.35938 0.44531 0.60938 0.57812 0.25781 0.13672 0.55078 0.20312 0.875 0.20312 0.80078 0 1.4258-0.30469 1.875-0.92188 0.45703-0.61328 0.6875-1.4688 0.6875-2.5625v-5.9062h3.8281v11.969h-3.8281v-1.7344c-0.57422 0.69922-1.1836 1.2148-1.8281 1.5469-0.64844 0.33203-1.3555 0.5-2.125 0.5-1.3867 0-2.4453-0.42188-3.1719-1.2656-0.71875-0.85156-1.0781-2.0859-1.0781-3.7031z"
         id="path68" />
    </symbol>
    <symbol
       id="p"
       overflow="visible">
      <path
         d="m13.859-7.2812v7.2812h-3.8438v-5.5781c0-1.0312-0.027344-1.7383-0.078125-2.125-0.042969-0.39453-0.12109-0.6875-0.23438-0.875-0.14844-0.25-0.35156-0.44141-0.60938-0.57812-0.25-0.14453-0.54297-0.21875-0.875-0.21875-0.79297 0-1.418 0.3125-1.875 0.9375-0.46094 0.61719-0.6875 1.4648-0.6875 2.5469v5.8906h-3.8125v-11.969h3.8125v1.75c0.58203-0.69531 1.1953-1.207 1.8438-1.5312 0.64453-0.33203 1.3594-0.5 2.1406-0.5 1.3828 0 2.4297 0.42969 3.1406 1.2812 0.71875 0.84375 1.0781 2.0742 1.0781 3.6875z"
         id="path71" />
    </symbol>
    <symbol
       id="o"
       overflow="visible">
      <path
         d="m2.0156-15.953h6.8125c2.0312 0 3.5859 0.45312 4.6719 1.3594 1.0938 0.89844 1.6406 2.1797 1.6406 3.8438 0 1.6797-0.54688 2.9688-1.6406 3.875-1.0859 0.89844-2.6406 1.3438-4.6719 1.3438h-2.7031v5.5312h-4.1094zm4.1094 2.9844v4.4531h2.2656c0.80078 0 1.4141-0.19141 1.8438-0.57812 0.4375-0.38281 0.65625-0.9375 0.65625-1.6562 0-0.70703-0.21875-1.2539-0.65625-1.6406-0.42969-0.38281-1.043-0.57812-1.8438-0.57812z"
         id="path74" />
    </symbol>
    <symbol
       id="n"
       overflow="visible">
      <path
         d="m1.8438-11.969h3.8125v11.75c0 1.6016-0.38672 2.8281-1.1562 3.6719-0.76172 0.84375-1.8711 1.2656-3.3281 1.2656h-1.8906v-2.5h0.65625c0.72656 0 1.2266-0.16797 1.5-0.5 0.26953-0.32422 0.40625-0.96875 0.40625-1.9375zm0-4.6562h3.8125v3.125h-3.8125z"
         id="path77" />
    </symbol>
    <symbol
       id="m"
       overflow="visible">
      <path
         d="m11.5-11.594v3.125c-0.52344-0.35156-1.043-0.61328-1.5625-0.78125-0.52344-0.17578-1.0625-0.26562-1.625-0.26562-1.0742 0-1.9062 0.3125-2.5 0.9375s-0.89062 1.4961-0.89062 2.6094c0 1.1172 0.29688 1.9844 0.89062 2.6094s1.4258 0.9375 2.5 0.9375c0.59375 0 1.1562-0.085937 1.6875-0.26562 0.53906-0.17578 1.0391-0.44141 1.5-0.79688v3.125c-0.59375 0.23047-1.1992 0.39453-1.8125 0.5-0.61719 0.11328-1.2344 0.17188-1.8594 0.17188-2.1562 0-3.8438-0.55078-5.0625-1.6562-1.2188-1.1133-1.8281-2.6562-1.8281-4.625s0.60938-3.5039 1.8281-4.6094c1.2188-1.1133 2.9062-1.6719 5.0625-1.6719 0.625 0 1.2383 0.058594 1.8438 0.17188 0.61328 0.10547 1.2227 0.26562 1.8281 0.48438z"
         id="path80" />
    </symbol>
  </defs>
  <g
     id="g347">
    <g
       id="g1250"
       transform="matrix(1.3263128,0,0,1.3263128,-114.20947,-104.42529)">
      <path
         inkscape:connector-curvature="0"
         id="path85"
         d="m 266.44,208.25 c 3.5,-9.625 9.625,-15.75 10.062,-15.75 l 5.6875,-5.25 4.8125,5.6875 c 5.25,6.125 8.75,12.25 10.938,18.375 11.375,1.75 22.75,3.5 34.125,5.6875 0.4375,-2.1875 1.3125,-4.8125 1.75,-7 -6.5625,1.3125 -14.875,1.3125 -24.5,-3.0625 l -10.5,-4.375 8.75,-7.4375 c 0.4375,-0.4375 7.875,-6.5625 18.375,-9.1875 -3.9375,-6.125 -7.4375,-14.875 -7.875,-27.125 l -0.4375,-7.4375 h 7.4375 c 0.875,0 19.688,0.875 25.812,28 l 7.875,-11.375 -1.75,15.312 c 14.875,-15.75 30.625,-11.812 31.5,-11.812 l 7.875,2.1875 -3.0625,7.4375 c -4.8125,11.375 -11.375,18.375 -17.938,23.188 10.5,5.25 16.625,13.562 16.625,14 l 7,9.625 c 2.625,0.4375 4.8125,0.4375 7.4375,0.875 15.312,-11.812 29.312,-8.3125 30.625,-8.3125 l 7.4375,1.75 -2.625,7 h 1.3125 c 31.938,-1.75 61.688,-14.875 87.938,-26.688 -7.4375,-9.625 -15.75,-18.812 -24.5,-27.125 -41.562,-36.75 -96.25,-60.375 -156.62,-60.375 -57.75,0 -110.25,21.438 -150.5,56.875 -19.688,17.5 -36.312,38.062 -49,61.25 40.25,-16.188 73.062,-26.688 115.94,-24.938 z" />
      <path
         inkscape:connector-curvature="0"
         id="path87"
         d="M 350,80.5 C 205.19,80.5 87.5,198.19 87.5,343 87.5,487.81 205.19,605.5 350,605.5 494.81,605.5 612.5,487.81 612.5,343 612.5,198.19 494.81,80.5 350,80.5 Z m 0,507.06 C 214.81,587.56 105.44,478.18 105.44,343 105.44,207.82 214.82,98.44 350,98.44 485.18,98.44 594.56,207.82 594.56,343 594.56,478.18 485.18,587.56 350,587.56 Z" />
      <path
         inkscape:connector-curvature="0"
         id="path89"
         d="m 413,465.5 c -55.125,-7.875 -89.688,-61.25 -140,-80.062 -50.312,-19.25 -100.19,-13.125 -145.69,6.5625 22.312,102.38 113.75,178.94 222.69,178.94 101.06,0 186.81,-65.625 216.56,-156.62 -9.625,2.1875 -19.688,5.25 -29.312,9.1875 -39.375,12.25 -81.812,46.812 -124.25,42 z m 87.938,-3.0625 c 2.625,0 4.8125,2.1875 4.8125,4.8125 0,2.625 -2.1875,4.8125 -4.8125,4.8125 -2.625,0 -4.8125,-2.1875 -4.8125,-4.8125 0,-2.625 2.1875,-4.8125 4.8125,-4.8125 z m -22.75,-3.0625 c 4.375,0 7.875,3.5 7.875,7.875 0,4.375 -3.5,7.875 -7.875,7.875 -4.375,0 -7.875,-3.5 -7.875,-7.875 0,-4.375 3.5,-7.875 7.875,-7.875 z M 413,470.75 c 2.625,0 4.8125,2.1875 4.8125,4.8125 0,2.625 -2.1875,4.8125 -4.8125,4.8125 -2.625,0 -4.8125,-2.1875 -4.8125,-4.8125 0,-2.625 2.1875,-4.8125 4.8125,-4.8125 z m -27.125,-9.1875 c 7,0 12.688,5.6875 12.688,12.688 0,7.0005 -5.6875,12.688 -12.688,12.688 -7.0005,0 -12.688,-5.6875 -12.688,-12.688 0,-6.5625 5.6875,-12.688 12.688,-12.688 z m -20.562,17.5 c 0,8.3125 -7,15.312 -15.312,15.312 -8.312,0 -15.312,-7 -15.312,-15.312 0,-8.312 7,-15.312 15.312,-15.312 8.312,0 15.312,7 15.312,15.312 z m -28.438,-37.625 c 3.9375,0 7.4375,3.0625 7.4375,7.4375 0,3.9375 -3.0625,7.4375 -7.4375,7.4375 -3.9375,0 -7.4375,-3.0625 -7.4375,-7.4375 0,-3.9375 3.0625,-7.4375 7.4375,-7.4375 z m -10.5,28.438 c 0,7 -5.6875,12.688 -12.688,12.688 -7.0005,0 -12.688,-5.6875 -12.688,-12.688 0,-7.0005 5.6875,-12.688 12.688,-12.688 7.0005,0 12.688,5.6875 12.688,12.688 z m -10.062,-24.5 c 0,2.625 -2.1875,4.8125 -4.8125,4.8125 -2.625,0 -4.8125,-2.1875 -4.8125,-4.8125 0,-2.625 2.1875,-4.8125 4.8125,-4.8125 2.625,0 4.8125,2.1875 4.8125,4.8125 z m -14,-30.188 c 3.9375,0 7.4375,3.0625 7.4375,7.4375 0,3.9375 -3.0625,7.4375 -7.4375,7.4375 -3.9375,0 -7.4375,-3.0625 -7.4375,-7.4375 0.4375,-4.375 3.5,-7.4375 7.4375,-7.4375 z m -3.9375,32.812 c 0,5.6875 -4.375,10.062 -10.062,10.062 -5.687,0 -10.062,-4.375 -10.062,-10.062 0,-5.687 4.375,-10.062 10.062,-10.062 5.687,0 10.062,4.375 10.062,10.062 z m -7.4375,24.5 c 0,2.625 -2.1875,4.8125 -4.8125,4.8125 -2.625,0 -4.8125,-2.1875 -4.8125,-4.8125 0,-2.625 2.1875,-4.8125 4.8125,-4.8125 2.625,0 4.8125,2.1875 4.8125,4.8125 z m -4.8125,-49 c 0,4.375 -3.5,7.875 -7.875,7.875 -4.375,0 -7.875,-3.5 -7.875,-7.875 0,-4.375 3.5,-7.875 7.875,-7.875 3.9375,0 7.875,3.5 7.875,7.875 z m -10.5,-28.438 c 3.0625,0 5.6875,2.625 5.6875,5.6875 0,3.0625 -2.625,5.6875 -5.6875,5.6875 -3.0625,0 -5.6875,-2.625 -5.6875,-5.6875 -0.4375,-3.0625 2.1875,-5.6875 5.6875,-5.6875 z m -7.4375,44.625 c 0,3.5 -2.625,6.125 -6.125,6.125 -3.5,0 -6.125,-2.625 -6.125,-6.125 0,-3.5 2.625,-6.125 6.125,-6.125 3.5,0 6.125,2.625 6.125,6.125 z m -25.812,16.625 c 0,-4.375 3.5,-7.875 7.875,-7.875 4.375,0 7.875,3.5 7.875,7.875 0,4.375 -3.5,7.875 -7.875,7.875 -4.375,0 -7.875,-3.5 -7.875,-7.875 z m 7.4375,40.25 c 0,2.625 -2.1875,4.8125 -4.8125,4.8125 -2.625,0 -4.8125,-2.1875 -4.8125,-4.8125 0,-2.625 2.1875,-4.8125 4.8125,-4.8125 2.625,0 4.8125,2.1875 4.8125,4.8125 z m 13.125,-81.812 c 0,3.5 -2.625,6.125 -6.125,6.125 -3.5,0 -6.125,-2.625 -6.125,-6.125 0,-3.5 2.625,-6.125 6.125,-6.125 3.5,0 6.125,2.625 6.125,6.125 z m -14.438,-30.188 c 2.625,0 4.8125,2.1875 4.8125,4.8125 0,2.625 -2.1875,4.8125 -4.8125,4.8125 -2.625,0 -4.8125,-2.1875 -4.8125,-4.8125 0,-2.625 2.1875,-4.8125 4.8125,-4.8125 z m -12.25,19.688 c 4.375,0 7.875,3.5 7.875,7.875 0,4.375 -3.5,7.875 -7.875,7.875 -4.375,0 -7.875,-3.5 -7.875,-7.875 0,-4.375 3.5,-7.875 7.875,-7.875 z m 4.375,33.688 c 0,3.0625 -2.625,5.6875 -5.6875,5.6875 -3.0625,0 -5.6875,-2.625 -5.6875,-5.6875 0,-3.0625 2.625,-5.6875 5.6875,-5.6875 3.0625,0 5.6875,2.625 5.6875,5.6875 z m -19.25,-33.688 c 0,2.625 -2.1875,4.8125 -4.8125,4.8125 -2.625,0 -4.8125,-2.1875 -4.8125,-4.8125 0,-2.625 2.1875,-4.8125 4.8125,-4.8125 2.625,0 4.8125,2.1875 4.8125,4.8125 z m -7.4375,-23.188 c 2.625,0 4.8125,2.1875 4.8125,4.8125 0,2.625 -2.1875,4.8125 -4.8125,4.8125 -2.625,0 -4.8125,-2.1875 -4.8125,-4.8125 -0.4375,-2.625 1.75,-4.8125 4.8125,-4.8125 z m -3.0625,42 c 4.375,0 7.875,3.5 7.875,7.875 0,4.375 -3.5,7.875 -7.875,7.875 -4.375,0 -7.875,-3.5 -7.875,-7.875 0,-4.375 3.5,-7.875 7.875,-7.875 z m -12.25,-22.75 c 2.625,0 4.8125,2.1875 4.8125,4.8125 0,2.625 -2.1875,4.8125 -4.8125,4.8125 -2.625,0 -4.8125,-2.1875 -4.8125,-4.8125 -0.4375,-2.625 1.75,-4.8125 4.8125,-4.8125 z m -19.25,-14.438 c 0.875,-2.625 3.9375,-3.9375 6.5625,-3.0625 2.625,0.875 3.9375,3.9375 3.0625,6.5625 -0.875,2.625 -3.9375,3.9375 -6.5625,3.0625 -2.625,-0.875 -3.9375,-3.9375 -3.0625,-6.5625 z m -35.875,10.5 c 0,-2.625 2.1875,-4.8125 4.8125,-4.8125 2.625,0 4.8125,2.1875 4.8125,4.8125 0,2.625 -2.1875,4.8125 -4.8125,4.8125 -2.625,0 -4.8125,-2.1875 -4.8125,-4.8125 z m 3.0625,17.938 c 1.75,-4.8125 6.5625,-7 11.375,-5.6875 4.8125,1.75 7,6.5625 5.6875,11.375 -1.75,4.8125 -6.5625,7 -11.375,5.6875 -4.8125,-1.3125 -7.4375,-6.5625 -5.6875,-11.375 z m 13.125,32.812 c -3.0625,0 -5.6875,-2.625 -5.6875,-5.6875 0,-3.0625 2.625,-5.6875 5.6875,-5.6875 3.0625,0 5.6875,2.625 5.6875,5.6875 0,3.0625 -2.625,5.6875 -5.6875,5.6875 z m 10.5,-39.812 c 1.3125,-3.5 5.25,-5.6875 8.75,-4.375 3.5,1.3125 5.6875,5.25 4.375,8.75 -1.3125,3.5 -5.25,5.6875 -8.75,4.375 -3.9375,-1.3125 -5.6875,-5.25 -4.375,-8.75 z m 7,64.312 c -3.5,0 -6.5625,-3.0625 -6.5625,-6.5625 0,-3.5 3.0625,-6.5625 6.5625,-6.5625 3.5,0 6.5625,3.0625 6.5625,6.5625 0,3.9375 -2.625,6.5625 -6.5625,6.5625 z m 4.8125,-31.062 c -4.8125,-1.75 -7.4375,-6.5625 -5.6875,-11.375 1.75,-4.8125 6.5625,-7 11.375,-5.6875 4.8125,1.75 7,6.5625 5.6875,11.375 -1.3125,4.8125 -6.5625,7.4375 -11.375,5.6875 z m 17.062,54.25 c -3.9375,0 -6.5625,-3.0625 -6.5625,-6.5625 0,-3.9375 3.0625,-6.5625 6.5625,-6.5625 3.9375,0 6.5625,3.0625 6.5625,6.5625 0,3.5 -3.0625,6.5625 -6.5625,6.5625 z m 14,-35.438 c -2.1875,5.6875 -8.3125,9.1875 -14.438,7 -5.6875,-2.1875 -9.1875,-8.3125 -7,-14.438 2.1875,-5.6875 8.3125,-9.1875 14.438,-7 5.6875,2.1875 8.75,8.75 7,14.438 z m 9.1875,52.938 c -3.9375,0 -7,-3.0625 -7,-7 0,-3.9375 3.0625,-7 7,-7 3.9375,0 7,3.0625 7,7 0,3.9375 -3.0625,7 -7,7 z m 2.625,-22.312 c -7,-2.1875 -10.938,-10.062 -8.3125,-17.062 2.1875,-7 10.062,-10.938 17.062,-8.3125 7,2.6255 10.938,10.062 8.3125,17.062 -2.6255,7 -10.062,10.938 -17.062,8.3125 z m 21.875,37.625 c -4.375,0 -7.875,-3.5 -7.875,-7.875 0,-4.375 3.5,-7.875 7.875,-7.875 4.375,0 7.875,3.5 7.875,7.875 0,4.375 -3.5,7.875 -7.875,7.875 z m 6.5625,-49 c 0,-5.6875 4.375,-10.062 10.062,-10.062 5.687,0 10.062,4.8125 10.062,10.062 0,5.6875 -4.375,10.062 -10.062,10.062 -5.25,0.4375 -10.062,-4.375 -10.062,-10.062 z m 4.375,28 c 0,-3.9375 3.0625,-7.4375 7.4375,-7.4375 3.9375,0 7.4375,3.0625 7.4375,7.4375 0,4.375 -3.0625,7.4375 -7.4375,7.4375 -3.9375,-0.4375 -7.4375,-3.5 -7.4375,-7.4375 z m 16.188,35.438 c -5.6875,0 -10.062,-4.375 -10.062,-10.062 0,-5.687 4.8125,-10.062 10.062,-10.062 5.6875,0 10.062,4.375 10.062,10.062 0.4375,5.6875 -4.375,10.062 -10.062,10.062 z m 4.375,-44.188 c 0,-7 5.6875,-12.688 12.688,-12.688 7.0005,0 12.688,5.6875 12.688,12.688 0,7.0005 -5.6875,12.688 -12.688,12.688 -7.0005,0 -12.688,-5.6875 -12.688,-12.688 z m 31.062,56 c -7,0 -12.688,-5.6875 -12.688,-12.688 0,-7.0005 5.6875,-12.688 12.688,-12.688 7.0005,0 12.688,5.6875 12.688,12.688 0,7.0005 -5.6875,12.688 -12.688,12.688 z m 3.0625,-42.438 c 0,-8.3125 7,-15.312 15.312,-15.312 8.312,0 15.312,7 15.312,15.312 0,8.312 -7,15.312 -15.312,15.312 -8.312,0 -15.312,-7 -15.312,-15.312 z m 37.625,47.25 c -8.3125,0 -15.312,-7 -15.312,-15.312 0,-8.312 7,-15.312 15.312,-15.312 8.312,0 15.312,7 15.312,15.312 0,8.312 -7,15.312 -15.312,15.312 z m 6.5625,-47.25 c 0,-8.3125 7,-15.312 15.312,-15.312 8.312,0 15.312,7 15.312,15.312 0,8.312 -7,15.312 -15.312,15.312 -8.312,0 -15.312,-7 -15.312,-15.312 z m 33.688,42.438 c -7,0 -12.688,-5.6875 -12.688,-12.688 0,-7.0005 5.6875,-12.688 12.688,-12.688 7.0005,0 12.688,5.6875 12.688,12.688 0,7.0005 -5.6875,12.688 -12.688,12.688 z m 5.6875,-56 c 0,-7 5.6875,-12.688 12.688,-12.688 7.0005,0 12.688,5.6875 12.688,12.688 0,7.0005 -5.6875,12.688 -12.688,12.688 -7.0005,0 -12.688,-5.6875 -12.688,-12.688 z m 29.75,44.188 c -5.6875,0 -10.062,-4.375 -10.062,-10.062 0,-5.687 4.375,-10.062 10.062,-10.062 5.687,0 10.062,4.375 10.062,10.062 0,5.687 -4.375,10.062 -10.062,10.062 z m 8.75,-28.438 c -3.9375,0 -7.4375,-3.0625 -7.4375,-7.4375 0,-4.375 3.0625,-7.4375 7.4375,-7.4375 3.9375,0 7.4375,3.0625 7.4375,7.4375 0,4.375 -3.5,7.4375 -7.4375,7.4375 z m 1.3125,-24.5 c -5.6875,0 -10.062,-4.375 -10.062,-10.062 0,-5.687 4.375,-10.062 10.062,-10.062 5.687,0 10.062,4.8125 10.062,10.062 0.4375,5.25 -4.375,10.062 -10.062,10.062 z m 17.938,38.5 c -4.375,0 -7.875,-3.5 -7.875,-7.875 0,-4.375 3.5,-7.875 7.875,-7.875 4.375,0 7.875,3.5 7.875,7.875 0,4.375 -3.5,7.875 -7.875,7.875 z m 7,-28.438 c -5.6875,0 -10.062,-4.375 -10.062,-10.062 0,-5.687 4.375,-10.062 10.062,-10.062 5.687,0 10.062,4.375 10.062,10.062 0.4375,5.25 -4.375,10.062 -10.062,10.062 z m 17.5,13.125 c -3.9375,0 -7,-3.0625 -7,-7 0,-3.9375 3.0625,-7 7,-7 3.9375,0 7,3.0625 7,7 0,3.9375 -3.0625,7 -7,7 z m 4.375,-22.312 c -2.625,0 -4.8125,-2.1875 -4.8125,-4.8125 0,-2.625 2.1875,-4.8125 4.8125,-4.8125 2.625,0 4.8125,2.1875 4.8125,4.8125 0,2.625 -2.1875,4.8125 -4.8125,4.8125 z m 18.812,4.8125 c -3.9375,0 -6.5625,-3.0625 -6.5625,-6.5625 0,-3.9375 3.0625,-6.5625 6.5625,-6.5625 3.9375,0 6.5625,3.0625 6.5625,6.5625 0,3.5 -3.0625,6.5625 -6.5625,6.5625 z m 3.9375,-38.938 c -2.625,0 -4.8125,-2.1875 -4.8125,-4.8125 0,-2.625 2.1875,-4.8125 4.8125,-4.8125 2.625,0 4.8125,2.1875 4.8125,4.8125 0,2.625 -2.1875,4.8125 -4.8125,4.8125 z m 17.5,15.75 c -3.5,0 -6.5625,-3.0625 -6.5625,-6.5625 0,-3.5 3.0625,-6.5625 6.5625,-6.5625 3.5,0 6.5625,3.0625 6.5625,6.5625 0,3.9375 -3.0625,6.5625 -6.5625,6.5625 z m 1.75,-21.438 c -2.625,0 -4.8125,-2.1875 -4.8125,-4.8125 0,-2.625 2.1875,-4.8125 4.8125,-4.8125 2.625,0 4.8125,2.1875 4.8125,4.8125 0.4375,2.625 -1.75,4.8125 -4.8125,4.8125 z m 17.5,-16.625 c 3.0625,0 5.25,2.1875 5.25,5.25 0,3.0625 -2.1875,5.25 -5.25,5.25 -3.0625,0 -5.25,-2.1875 -5.25,-5.25 0,-2.625 2.625,-5.25 5.25,-5.25 z" />
      <path
         inkscape:connector-curvature="0"
         id="path91"
         d="m 385.88,273.88 c 0,0 33.25,-0.4375 48.562,-45.938 0,0.4375 -29.75,-7.875 -48.562,45.938 z" />
      <path
         inkscape:connector-curvature="0"
         id="path93"
         d="m 497.44,360.94 c 0,0 -28,-21.875 -51.188,-7 0,0.4375 17.938,23.625 51.188,7 z" />
      <path
         inkscape:connector-curvature="0"
         id="path95"
         d="m 442.31,357 c 0,0 -24.938,18.375 7.4375,49.438 0,0 22.75,-26.25 -7.4375,-49.438 z" />
      <path
         inkscape:connector-curvature="0"
         id="path97"
         d="m 283.06,243.25 c 0,0 24.5,-14 -1.75,-45.5 0,-0.4375 -23.188,21 1.75,45.5 z" />
      <path
         inkscape:connector-curvature="0"
         id="path99"
         d="m 279.12,245 c 0,0 -14,-23.188 -45.5,-11.375 0,0 23.188,22.75 45.5,11.375 z" />
      <path
         inkscape:connector-curvature="0"
         id="path101"
         d="m 435.75,299.69 c 0,0 -18.812,-29.312 -48.562,-22.75 0,0 8.3125,27.562 48.562,22.75 z" />
      <path
         inkscape:connector-curvature="0"
         id="path103"
         d="m 386.31,178.94 c 0,0 -21.438,-5.6875 -35.438,27.562 0,0 23.625,0.4375 35.438,-27.562 z" />
      <path
         inkscape:connector-curvature="0"
         id="path105"
         d="m 351.75,208.25 c 0,0 5.25,17.5 34.125,14.875 0,0 -13.125,-18.375 -34.125,-14.875 z" />
      <path
         inkscape:connector-curvature="0"
         id="path107"
         d="m 324.62,158.812 c 1.3125,29.312 20.562,35 20.562,35 -1.75,-34.562 -20.562,-35 -20.562,-35 z" />
      <path
         inkscape:connector-curvature="0"
         id="path109"
         d="m 344.31,195.56 c -16.188,-8.75 -32.375,5.25 -32.375,5.25 22.75,9.625 32.375,-5.25 32.375,-5.25 z" />
      <path
         inkscape:connector-curvature="0"
         id="path111"
         d="m 336.44,417.38 c 17.938,13.562 34.562,27.125 53.812,35 -3.0625,-7 -7,-13.562 -12.688,-19.25 -15.312,-14.875 -1.3125,-38.062 6.125,-44.188 13.125,-10.5 29.312,-19.25 43.312,-27.125 28.875,-16.625 40.25,-56.875 40.25,-56.875 0,0 -24.5,44.625 -59.5,52.062 -11.375,2.1875 -21.438,4.8125 -29.312,10.5 -5.6875,4.375 -12.688,-1.3125 -10.5,-8.75 2.188,-7.4375 4.8125,-15.312 8.3125,-22.312 14.438,-31.938 13.562,-64.75 -9.1875,-84 -22.7495,-19.25 -18.375,-56.438 -18.375,-56.438 0,0 -21.875,31.938 -3.5,53.812 11.812,13.562 17.938,29.312 10.062,53.375 -1.75,5.6875 -11.812,15.312 -18.812,7 -3.5,-4.375 -8.75,-7.4375 -14.438,-10.062 -27.562,-13.125 -40.25,-53.375 -40.25,-53.375 0,0 1.3125,35.875 21.875,55.562 6.5625,6.125 13.562,12.688 20.125,19.688 10.938,11.375 11.375,31.938 7,38.5 -7.875,10.938 -12.688,24.5 -13.562,41.562 6.5625,5.25 13.125,10.062 19.25,15.312 z" />
      <path
         inkscape:connector-curvature="0"
         id="path113"
         d="m 397.25,449.31 c 14.875,1.75 30.188,0.875 45.938,-1.75 -16.188,1.75 -32.375,1.3125 -47.25,-1.3125 0,0.875 0.4375,1.75 1.3125,3.0625 z" />
      <path
         inkscape:connector-curvature="0"
         id="path115"
         d="m 378,416.06 v 0 c 0,2.625 0.4375,4.375 1.3125,6.5625 21,5.6875 43.312,6.125 66.062,1.75 -24.062,2.625 -46.812,0 -67.375,-8.3125 z" />
      <path
         inkscape:connector-curvature="0"
         id="path117"
         d="m 575.75,332.94 c -3.9375,-1.75 -7.875,-3.9375 -11.812,-5.6875 -30.625,-14.438 -61.688,-18.812 -91.875,-12.688 -2.625,9.625 -7.4375,19.688 -14.875,28 12.688,-2.1875 24.938,1.75 33.688,6.125 27.125,-13.125 55.562,-18.375 84.875,-15.75 z" />
      <path
         inkscape:connector-curvature="0"
         id="path119"
         d="m 386.31,431.81 c 1.3125,1.75 2.625,3.5 3.9375,5.25 17.5,2.625 35.438,2.1875 53.375,-1.3125 -19.688,2.1875 -38.938,0.875 -57.312,-3.9375 z" />
      <path
         inkscape:connector-curvature="0"
         id="path121"
         d="m 427,369.69 -2.1875,1.3125 c -5.25,3.0625 -10.5,5.6875 -15.312,9.1875 5.6875,0.875 11.812,0.875 17.5,0.875 -0.4375,-2.1875 -0.4375,-4.8125 -0.4375,-7 0,-1.75 0,-3.0625 0.4375,-4.375 z" />
      <path
         inkscape:connector-curvature="0"
         id="path123"
         d="m 388.5,394.19 c -0.4375,0 -0.4375,0 0,0 -1.3125,0.875 -2.625,2.625 -4.375,4.8125 16.625,4.8125 33.688,6.125 51.625,3.9375 l -0.875,-0.875 c -16.625,0.4375 -31.938,-2.1875 -46.375,-7.875 z" />
      <path
         inkscape:connector-curvature="0"
         id="path125"
         d="m 444.94,322 c -7,2.625 -14,6.125 -21,9.625 -13.125,7.875 -26.25,16.188 -39.375,24.062 6.5625,-2.625 14,-4.375 21.875,-6.125 12.688,-2.625 26.688,-14.438 38.5,-27.562 z" />
      <path
         inkscape:connector-curvature="0"
         id="path127"
         d="m 400.31,385.44 c -2.1875,1.3125 -3.9375,2.625 -5.6875,3.9375 11.375,2.625 23.188,3.5 35.438,2.625 -0.4375,-0.4375 -0.4375,-1.3125 -0.875,-1.75 -9.625,-0.4375 -19.25,-1.75 -28.875,-4.8125 z" />
      <path
         inkscape:connector-curvature="0"
         id="path129"
         d="m 378.88,409.94 c 20.562,6.125 42.438,7 64.75,3.0625 -22.312,2.1875 -43.312,-0.875 -62.562,-8.75 -0.875,1.75 -1.75,3.9375 -2.1875,5.6875 z" />
      <path
         inkscape:connector-curvature="0"
         id="path131"
         d="m 469.44,412.12 c 32.375,-25.375 69.125,-36.312 105.44,-30.625 0.4375,-3.5 1.3125,-7 1.3125,-10.062 -38.938,-2.625 -76.125,12.688 -106.75,40.688 z" />
      <path
         inkscape:connector-curvature="0"
         id="path133"
         d="m 478.62,431.38 c 27.562,-21.875 59.5,-31.5 90.562,-26.25 0.875,-3.5 1.75,-7 2.625,-10.062 -34.125,-2.1875 -66.938,11.812 -93.188,36.312 z" />
      <path
         inkscape:connector-curvature="0"
         id="path135"
         d="m 159.69,373.62 c -10.938,-4.8125 -23.188,-7.875 -36.312,-9.1875 0,0.875 0.4375,2.1875 0.4375,3.0625 9.625,1.75 18.812,4.8125 26.688,8.75 3.0625,-1.3125 6.125,-2.1875 9.1875,-2.625 z" />
      <path
         inkscape:connector-curvature="0"
         id="path137"
         d="m 124.25,371.44 c 0.4375,4.375 1.3125,8.75 2.1875,13.125 7,-3.0625 14,-5.6875 20.562,-7.875 -7.4375,-2.1875 -14.875,-3.9375 -22.75,-5.25 z" />
      <path
         inkscape:connector-curvature="0"
         id="path139"
         d="m 473.81,421.75 c 30.188,-23.625 64.75,-34.125 98.438,-28.438 0.875,-3.5 1.3125,-7 2.1875,-10.5 -36.75,-2.1875 -71.75,12.688 -100.62,38.938 z" />
      <path
         inkscape:connector-curvature="0"
         id="path141"
         d="m 172.38,370.56 c -14.438,-7.875 -31.5,-12.25 -49.875,-13.562 v 2.625 c 14.875,2.1875 28,6.5625 39.375,13.125 3.9375,-0.875 7.4375,-1.75 10.5,-2.1875 z" />
      <path
         inkscape:connector-curvature="0"
         id="path143"
         d="m 275.62,378.88 c 12.688,4.8125 24.062,11.375 35,18.812 0.4375,-5.6875 1.3125,-11.375 2.625,-16.625 -10.938,0.4375 -22.312,-0.4375 -34.125,-3.9375 -32.812,-8.75 -59.062,-27.125 -88.812,-38.062 10.062,4.8125 18.812,10.938 26.688,18.375 -19.688,-15.312 -43.75,-24.062 -70.438,-27.562 -4.375,0 -9.1875,0 -14,0.4375 -0.875,0 -2.1875,0.4375 -3.0625,0.4375 31.938,2.625 59.5,13.125 79.625,31.938 -23.188,-18.375 -53.375,-26.688 -87.062,-27.125 v 1.75 c 31.062,2.1875 58.188,11.812 77.875,29.312 25.812,-0.875 51.188,3.0625 75.688,12.25 z" />
      <path
         inkscape:connector-curvature="0"
         id="path145"
         d="m 487.38,437.5 5.25,-2.625 c 14,-7 28.438,-14 42,-18.375 10.062,-3.9375 20.125,-7 30.188,-9.1875 l 1.75,-0.4375 C 537.693,406 510.13,417.375 487.38,437.5 Z" />
      <path
         inkscape:connector-curvature="0"
         id="path147"
         d="m 185.94,368.38 c -17.938,-11.375 -39.812,-17.5 -63.875,-18.375 v 2.1875 c 20.125,2.1875 38.062,8.3125 52.062,17.938 4.375,-0.875 7.875,-1.3125 11.812,-1.75 z" />
      <path
         inkscape:connector-curvature="0"
         id="path149"
         d="m 577.94,335.12 c -27.562,-0.875 -54.25,5.6875 -79.188,18.375 1.75,1.3125 2.625,1.75 3.0625,2.1875 l 0.4375,0.4375 c 24.5,-10.062 50.312,-13.562 75.688,-10.5 v -2.1875 z" />
      <path
         inkscape:connector-curvature="0"
         id="path151"
         d="m 199.94,367.06 c -21,-15.75 -48.125,-23.625 -77.875,-24.062 v 1.75 c 25.375,2.1875 48.125,10.062 64.75,23.625 4.375,-0.875 8.75,-1.3125 13.125,-1.3125 z" />
      <path
         inkscape:connector-curvature="0"
         id="path153"
         d="m 465.06,402.06 c 34.125,-26.688 73.062,-38.5 111.56,-32.812 0.4375,-3.5 0.875,-7 0.875,-10.062 -41.125,-2.1875 -80.062,14 -112.44,42.875 z" />
      <path
         inkscape:connector-curvature="0"
         id="path155"
         d="m 508.38,360.94 c 0,0 1.75,1.3125 3.5,3.0625 21.438,-7.4375 43.312,-9.625 65.188,-6.5625 0,-3.5 0.4375,-6.5625 0.4375,-10.062 -23.625,-1.3125 -46.812,3.5 -69.125,13.562 z" />
      <path
         inkscape:connector-curvature="0"
         id="path157"
         d="m 361.38,233.62 c 13.125,0.875 24.938,2.1875 35.875,3.9375 0.4375,-0.4375 0.875,-1.3125 1.3125,-1.75 -13.125,-1.3125 -26.25,-3.9375 -39.375,-6.125 1.3125,1.3125 1.75,2.625 2.1875,3.9375 z" />
      <path
         inkscape:connector-curvature="0"
         id="path159"
         d="m 389.38,249.38 c 0.4375,-0.875 0.875,-1.75 1.3125,-2.1875 -6.5625,-1.3125 -14,-2.1875 -21.875,-3.0625 0.4375,0.4375 0.4375,0.875 0.875,0.875 6.5625,1.3125 13.125,3.0625 19.688,4.375 z" />
      <path
         inkscape:connector-curvature="0"
         id="path161"
         d="m 396.38,239.31 c -10.5,-1.3125 -21.438,-2.625 -33.25,-3.0625 0.4375,0.4375 0.4375,0.875 0.875,1.3125 10.938,0.875 21.438,2.1875 30.625,3.9375 0.4375,-0.875 0.875,-1.3125 1.75,-2.1875 z" />
      <path
         inkscape:connector-curvature="0"
         id="path163"
         d="m 291.38,252 c 7.4375,-3.5 15.312,-6.5625 23.625,-8.3125 -9.1875,0.4375 -17.938,1.75 -25.375,4.375 0.4375,0.875 0.875,2.1875 1.75,3.9375 z" />
      <path
         inkscape:connector-curvature="0"
         id="path165"
         d="m 224.88,235.38 -0.875,-0.875 c -26.25,9.1875 -51.625,11.812 -74.375,6.5625 -1.3125,0.4375 -2.625,0.875 -3.9375,1.75 -0.875,2.1875 -1.75,3.9375 -2.625,6.125 25.812,3.5 54.25,-1.75 81.812,-13.562 z" />
      <path
         inkscape:connector-curvature="0"
         id="path167"
         d="m 391.56,245.88 c 0.4375,-0.875 1.3125,-1.75 1.75,-2.625 -8.75,-1.3125 -17.938,-2.625 -28,-3.0625 0.4375,0.4375 0.875,1.3125 1.3125,1.75 9.1875,0.875 17.5,2.1875 24.938,3.9375 z" />
      <path
         inkscape:connector-curvature="0"
         id="path169"
         d="m 295.75,239.75 c 10.5,-2.1875 22.312,-3.0625 35.438,-2.1875 v -0.875 c -11.812,-1.3125 -23.188,-1.3125 -33.688,0 -0.4375,0.875 -0.875,2.1875 -1.75,3.0625 z" />
      <path
         inkscape:connector-curvature="0"
         id="path171"
         d="m 467.69,255.5 c -14,1.3125 -26.25,0.4375 -37.625,-2.625 -0.875,1.3125 -1.75,2.1875 -2.1875,3.5 12.688,0.875 25.812,0.4375 39.812,-0.875 z" />
      <path
         inkscape:connector-curvature="0"
         id="path173"
         d="m 289.62,247.19 c 11.375,-4.8125 25.812,-6.5625 42.875,-6.125 0,-0.4375 0,-0.4375 -0.4375,-0.875 -13.562,-1.3125 -26.25,-0.875 -37.625,1.3125 -1.75,2.625 -3.5,4.375 -4.8125,5.6875 z" />
      <path
         inkscape:connector-curvature="0"
         id="path175"
         d="m 544.69,241.94 c -4.375,1.75 -8.75,3.5 -12.688,4.8125 0.875,0 1.3125,-0.4375 2.1875,-0.4375 3.0625,-1.3125 6.5625,-3.0625 10.5,-4.375 z" />
      <path
         inkscape:connector-curvature="0"
         id="path177"
         d="m 447.12,237.12 c -1.3125,0 -3.0625,0.4375 -4.375,0.4375 h -4.375 c -0.875,2.1875 -1.75,3.9375 -2.625,5.6875 28.875,5.6875 67.812,-2.1875 108.5,-20.125 -38.5,15.312 -72.625,20.562 -97.125,14 z" />
      <path
         inkscape:connector-curvature="0"
         id="path179"
         d="m 298.38,234.5 c 9.625,-1.3125 20.562,-1.75 32.375,-0.875 v -0.4375 c -10.938,-1.3125 -21.438,-1.3125 -31.5,-0.875 -0.4375,0.4375 -0.4375,1.3125 -0.875,2.1875 z" />
      <path
         inkscape:connector-curvature="0"
         id="path181"
         d="m 169.31,233.19 c -5.25,1.75 -10.938,3.9375 -16.188,6.125 28.875,2.625 59.938,-5.6875 89.25,-22.312 -24.938,12.25 -50.312,17.938 -73.062,16.188 z" />
      <path
         inkscape:connector-curvature="0"
         id="path183"
         d="m 477.75,254.62 c 4.375,-0.4375 8.75,-1.3125 13.125,-1.75 4.375,-0.4375 8.75,-0.875 13.562,-1.75 13.562,-4.375 27.562,-9.625 42,-16.188 -24.938,10.062 -48.125,16.625 -68.688,19.688 z" />
      <path
         inkscape:connector-curvature="0"
         id="path185"
         d="m 450.62,236.69 c 25.375,3.0625 56.875,-3.9375 90.125,-17.938 0,0 0,-0.4375 -0.4375,-0.4375 -23.625,8.75 -45.5,13.562 -63.875,13.562 -7.875,2.1875 -16.625,3.9375 -25.812,4.8125 z" />
      <path
         inkscape:connector-curvature="0"
         id="path187"
         d="m 231.44,241.5 c -0.4375,-0.4375 -0.4375,-0.4375 -0.875,-0.4375 -31.062,12.25 -61.688,15.75 -88.812,9.625 -1.3125,2.625 -2.1875,5.6875 -3.5,8.3125 29.75,3.9375 62.125,-3.0625 93.188,-17.5 z" />
      <path
         inkscape:connector-curvature="0"
         id="path189"
         d="m 490.44,227.94 c 14.875,-2.1875 31.062,-7 47.25,-13.562 l -0.4375,-0.4375 c -10.5,3.5 -20.562,6.125 -30.188,7.875 -5.25,1.75 -10.938,3.9375 -16.625,6.125 z" />
      <path
         inkscape:connector-curvature="0"
         id="path191"
         d="m 435.31,244.12 c -1.3125,3.0625 -3.0625,5.6875 -4.375,7.875 31.5,5.25 72.625,-4.375 115.94,-23.625 -44.188,18.375 -84,24.5 -111.56,15.75 z" />
      <path
         inkscape:connector-curvature="0"
         id="path193"
         d="M 330.75,225.75 C 320.25,224.4375 310.188,224 300.562,224 v 1.75 c 9.625,-0.875 19.688,-0.4375 30.188,0.4375 z" />
      <path
         inkscape:connector-curvature="0"
         id="path195"
         d="m 220.94,218.31 c -13.562,2.625 -26.688,6.125 -40.688,10.938 13.562,-1.3125 27.125,-5.25 40.688,-10.938 z" />
      <path
         inkscape:connector-curvature="0"
         id="path197"
         d="m 300.12,227.94 v 1.75 0.4375 c 9.625,-0.875 19.688,-0.875 30.625,0 V 229.69 c -10.938,-1.75 -21,-2.1875 -30.625,-1.75 z" />
      <path
         inkscape:connector-curvature="0"
         id="path199"
         d="m 300.12,221.38 c 5.25,-0.4375 10.938,-0.4375 17.062,0 -5.6875,-0.875 -11.375,-2.1875 -17.5,-3.0625 0.4375,1.3125 0.4375,2.1875 0.4375,3.0625 z" />
      <path
         inkscape:connector-curvature="0"
         id="path201"
         d="m 167.12,294.88 c 29.312,-1.75 56,-8.3125 79.188,-19.688 8.3125,-3.9375 16.625,-8.3125 24.5,-12.688 1.75,-0.875 3.5,-1.75 5.25,-3.0625 -0.4375,-1.75 -0.4375,-3.5 -0.875,-4.8125 -51.188,31.062 -101.94,43.75 -147,35.875 -0.4375,0.875 -0.4375,2.1875 -0.875,3.0625 14.875,2.1875 28,2.625 39.812,1.3125 z" />
      <path
         inkscape:connector-curvature="0"
         id="path203"
         d="m 247.62,252 c -39.375,19.25 -78.75,25.812 -113.31,18.812 -0.875,2.625 -1.75,5.25 -2.625,8.3125 37.188,3.9375 77,-6.125 115.94,-27.125 z" />
      <path
         inkscape:connector-curvature="0"
         id="path205"
         d="m 239.31,246.75 c 0,0 -0.4375,0 -0.4375,-0.4375 -35.438,15.75 -70.438,20.562 -101.06,13.562 -0.875,2.625 -2.1875,5.6875 -3.0625,8.3125 33.25,4.8125 69.562,-3.5 104.56,-21.438 z" />
      <path
         inkscape:connector-curvature="0"
         id="path207"
         d="m 248.5,260.75 c -41.125,19.688 -81.375,27.125 -117.69,20.125 -0.875,2.625 -1.3125,5.25 -2.1875,7.875 38.938,3.9375 80.062,-6.5625 119.88,-28 z" />
      <path
         inkscape:connector-curvature="0"
         id="path209"
         d="m 300.56,269.94 c 0.4375,0.4375 0.875,1.3125 0.875,1.75 16.188,-4.375 31.5,-6.5625 45.5,-6.5625 -0.875,-1.75 -1.75,-3.0625 -2.625,-4.8125 -13.562,1.75 -28.438,4.8125 -43.75,9.625 z" />
      <path
         inkscape:connector-curvature="0"
         id="path211"
         d="m 339.5,253.75 c -13.125,2.1875 -27.562,5.6875 -42,10.938 0.4375,0.4375 0.4375,0.875 0.875,1.3125 15.75,-4.375 30.188,-7.4375 44.188,-8.75 -1.3125,-0.875 -2.1875,-2.1875 -3.0625,-3.5 v 0 z" />
      <path
         inkscape:connector-curvature="0"
         id="path213"
         d="m 350.88,275.62 c -12.688,-0.4375 -27.125,1.75 -42,5.25 0.875,0.875 1.3125,1.75 2.1875,2.625 14.875,-2.625 28.438,-2.625 40.25,-0.4375 0,-2.625 -0.4375,-5.25 -0.4375,-7.4375 z" />
      <path
         inkscape:connector-curvature="0"
         id="path215"
         d="m 294.44,258.56 c 0.4375,0.4375 0.875,1.3125 0.875,2.1875 14.875,-4.8125 28.438,-7.875 41.562,-9.625 -0.4375,-0.875 -0.875,-1.3125 -1.3125,-2.1875 h -6.125 c -12.688,0.4375 -24.062,4.375 -35,9.625 z" />
      <path
         inkscape:connector-curvature="0"
         id="path217"
         d="m 341.69,305.38 c 0.4375,0.4375 0.4375,0.4375 0.875,0.4375 1.3125,0 4.8125,-3.0625 5.6875,-5.25 0.875,-2.625 1.3125,-5.25 2.1875,-7.4375 -8.3125,-1.75 -17.5,-1.75 -27.562,-0.875 l 2.625,1.3125 c 3.0625,1.3125 6.125,3.0625 9.1875,5.25 3.9375,0.875 7.875,1.75 10.938,3.0625 -3.0625,-0.875 -5.6875,-1.3125 -9.1875,-1.3125 1.75,1.3125 3.5,3.0625 5.25,4.8125 z" />
      <path
         inkscape:connector-curvature="0"
         id="path219"
         d="m 304.5,275.62 c 0.4375,0.875 0.875,1.3125 1.3125,2.1875 16.188,-3.5 31.062,-4.8125 44.188,-3.9375 -0.4375,-2.1875 -1.3125,-3.9375 -1.75,-6.125 -13.562,0.4375 -28.438,3.0625 -43.75,7.875 z" />
      <path
         inkscape:connector-curvature="0"
         id="path221"
         d="m 351.31,283.94 c -11.375,-1.3125 -23.625,-0.4375 -37.188,2.1875 1.3125,1.3125 2.625,2.1875 4.375,3.5 11.812,-0.875 22.75,0 31.938,2.625 0.4375,-2.625 0.875,-5.25 0.875,-8.3125 z" />
      <path
         inkscape:connector-curvature="0"
         id="path223"
         d="m 217.88,308 c -5.25,-3.9375 -10.5,-7 -16.188,-10.062 -0.875,0 -1.75,0.4375 -3.0625,0.4375 6.5625,2.625 13.125,5.6875 19.25,9.625 z" />
      <path
         inkscape:connector-curvature="0"
         id="path225"
         d="m 179.38,301 c 11.812,2.1875 23.188,6.5625 34.125,13.125 v -0.4375 c -7.875,-5.25 -16.625,-10.062 -25.812,-13.562 -2.625,0.4375 -5.6875,0.875 -8.3125,0.875 z" />
      <path
         inkscape:connector-curvature="0"
         id="path227"
         d="m 222.25,301.88 c -3.0625,-2.1875 -6.125,-4.375 -9.625,-6.5625 -0.4375,0 -0.875,0 -1.3125,0.4375 3.9375,1.75 7.4375,3.5 10.938,6.125 z" />
      <path
         inkscape:connector-curvature="0"
         id="path229"
         d="m 474.69,301.44 c -0.4375,1.75 -0.4375,3.5 -0.875,5.25 6.125,-0.875 12.25,-1.75 18.375,-1.75 24.062,-6.125 52.938,-3.9375 83.562,5.25 -35.438,-12.688 -71.312,-16.625 -101.06,-8.75 z" />
      <path
         inkscape:connector-curvature="0"
         id="path231"
         d="m 229.25,349.12 c 16.188,8.3125 33.25,16.625 51.625,21.438 12.25,3.5 23.625,4.375 34.562,3.0625 0.875,-2.1875 1.75,-4.375 2.625,-6.125 -33.25,3.5 -66.938,-7 -98,-31.062 0,0 -35.875,-32.375 -84,-22.312 23.188,-10.062 49,-7 73.062,6.125 l 0.4375,-0.4375 c -15.312,-10.5 -32.812,-17.062 -50.312,-17.5 h -7.875 c -6.125,0.4375 -12.688,1.3125 -18.812,3.5 3.5,-1.3125 7,-2.625 10.5,-3.5 l -17.062,-1.3125 c -1.3125,7.875 -2.1875,15.75 -3.0625,23.625 3.0625,-0.4375 9.1875,-1.3125 9.625,-1.3125 38.5,-3.0625 68.25,11.812 96.688,25.812 z" />
      <path
         inkscape:connector-curvature="0"
         id="path233"
         d="m 476,291.38 c 0,2.625 -0.4375,5.25 -0.875,8.3125 27.562,-10.062 62.125,-8.75 98.875,2.625 -34.125,-12.688 -68.25,-17.062 -98,-10.938 z" />
      <path
         inkscape:connector-curvature="0"
         id="path235"
         d="m 425.69,276.06 c 10.062,-5.6875 20.562,-9.625 31.938,-12.688 -11.812,0.875 -23.625,0.875 -35.438,-0.4375 -3.5,3.5 -6.5625,6.5625 -10.062,8.75 18.375,7 28.875,22.75 29.75,24.062 l 6.125,9.625 -11.375,1.3125 c -21,2.625 -35,-3.0625 -44.188,-10.5 0,13.125 -3.5,28 -10.062,42.875 -1.75,3.9375 -3.5,8.3125 -4.8125,12.688 7.875,-4.375 15.312,-9.1875 23.188,-14 l 19.688,-11.812 c 10.938,-6.125 22.312,-10.938 33.688,-14.438 5.25,-6.5625 10.062,-13.125 13.562,-18.375 -6.125,1.75 -11.812,3.5 -17.062,6.125 5.6875,-3.5 12.25,-6.125 18.812,-8.3125 2.625,-3.9375 4.8125,-7.4375 6.125,-9.1875 -11.812,1.75 -22.75,5.25 -32.812,10.062 33.688,-19.25 79.188,-21 128.19,-6.5625 v -0.4375 c -50.312,-16.625 -98.438,-18.812 -136.94,-0.875 35.438,-20.125 82.688,-21.875 134.31,-7 v -0.4375 c -52.062,-17.5 -102.38,-19.25 -142.62,-0.4375 z" />
      <path
         inkscape:connector-curvature="0"
         id="path237"
         d="m 565.25,268.19 c -2.1875,-6.5625 -4.8125,-12.688 -7.4375,-18.812 -18.812,3.5 -37.625,6.5625 -56.438,9.1875 20.125,0 41.562,3.0625 63.875,9.625 z" />
      <path
         inkscape:connector-curvature="0"
         id="path239"
         d="m 476,281.75 v 7 c 28,-7.4375 61.25,-5.6875 96.25,4.8125 -33.25,-11.812 -66.5,-16.188 -96.25,-11.812 z" />
      <path
         inkscape:connector-curvature="0"
         id="path241"
         d="m 279.56,273.44 c -0.4375,-2.1875 -1.3125,-4.375 -1.75,-6.5625 -1.75,0.875 -3.0625,1.75 -4.8125,2.625 1.75,1.75 4.375,2.625 6.5625,3.9375 z" />
      <path
         inkscape:connector-curvature="0"
         id="path243"
         d="m 319.38,366.19 c 1.3125,-3.0625 3.0625,-5.6875 4.8125,-8.3125 -32.375,6.125 -65.625,-3.0625 -96.688,-24.938 28,22.312 59.5,34.562 91.875,33.25 z" />
      <path
         inkscape:connector-curvature="0"
         id="path245"
         d="m 241.5,285.25 c 14.438,10.062 33.25,16.625 54.688,19.688 -0.4375,-0.4375 -0.875,-0.875 -1.3125,-1.75 -19.25,-3.9375 -35.438,-10.938 -47.25,-20.562 -2.1875,0.875 -4.375,1.75 -6.125,2.625 z" />
      <path
         inkscape:connector-curvature="0"
         id="path247"
         d="m 249.38,281.75 c 11.375,7.875 25.375,13.125 41.125,16.188 -0.4375,-0.875 -0.875,-1.75 -1.3125,-2.1875 -13.125,-3.9375 -24.5,-9.1875 -33.688,-16.625 -2.1875,0.875 -3.9375,1.75 -6.125,2.625 z" />
      <path
         inkscape:connector-curvature="0"
         id="path249"
         d="m 325.06,356.56 c 0.875,-1.3125 1.3125,-4.375 1.3125,-8.75 -31.938,7.875 -65.625,-0.4375 -96.25,-22.75 28.875,23.625 61.688,35.438 94.938,31.5 z" />
      <path
         inkscape:connector-curvature="0"
         id="path251"
         d="m 265.12,273.88 c 5.25,3.5 10.938,6.125 17.062,8.3125 -0.875,-1.75 -1.3125,-3.5 -1.75,-4.8125 -3.5,-1.75 -7,-3.9375 -10.062,-6.5625 -1.3125,0.875 -3.0625,2.1875 -5.25,3.0625 z" />
      <path
         inkscape:connector-curvature="0"
         id="path253"
         d="m 301.88,310.62 c -19.688,-2.625 -36.312,-7.875 -49.875,-15.75 16.188,11.375 34.125,18.375 52.5,17.938 l -1.3125,-1.3125 z" />
      <path
         inkscape:connector-curvature="0"
         id="path255"
         d="m 257.69,277.81 c 8.3125,5.6875 17.938,9.625 28.875,12.688 -0.4375,-1.3125 -1.3125,-2.1875 -1.75,-3.5 -8.3125,-3.0625 -15.312,-7 -21.438,-11.812 -2.1875,0.875 -3.9375,1.75 -5.6875,2.625 z" />
      <path
         inkscape:connector-curvature="0"
         id="path257"
         d="m 245,299.25 c 20.562,16.188 44.188,24.938 68.25,22.312 l -7,-7 C 286.125,317.6245 264.688,311.937 245,299.25 Z" />
      <path
         inkscape:connector-curvature="0"
         id="path259"
         d="m 236.69,311.5 c 26.688,21.438 57.312,31.938 88.375,26.688 -0.875,-2.625 -2.1875,-5.6875 -3.5,-7.875 -28,7.4375 -57.75,0 -84.875,-18.812 z" />
      <path
         inkscape:connector-curvature="0"
         id="path261"
         d="m 326.38,347.38 c 0,-2.625 -0.4375,-5.6875 -1.3125,-8.3125 -30.188,8.3125 -63,0.4375 -92.312,-21 28,22.75 60.812,34.562 93.625,29.312 z" />
      <path
         inkscape:connector-curvature="0"
         id="path263"
         d="m 241.06,305.38 c 23.625,19.25 52.062,28.875 80.062,24.5 -0.4375,-0.875 -1.3125,-1.75 -2.1875,-2.625 l -4.8125,-4.375 c -24.062,4.8125 -49.875,-1.75 -73.062,-17.5 z" />
    </g>
  </g>
</svg>
